<?xml version="1.0" standalone="no"?>
<!DOCTYPE svg PUBLIC "-//W3C//DTD SVG 20010904//EN"
 "http://www.w3.org/TR/2001/REC-SVG-20010904/DTD/svg10.dtd">
<svg version="1.0" xmlns="http://www.w3.org/2000/svg"
 width="1024.000000pt" height="1024.000000pt" viewBox="0 0 1024.000000 1024.000000"
 preserveAspectRatio="xMidYMid meet">

<g transform="translate(0.000000,1024.000000) scale(0.100000,-0.100000)"
fill="#685D54" stroke="none">
<path d="M7685 8833 c-21 -9 -71 -34 -110 -56 -168 -95 -234 -126 -300 -141
-38 -10 -97 -32 -130 -49 -67 -36 -173 -137 -198 -189 -9 -19 -29 -40 -44 -47
-44 -20 -193 -119 -260 -173 -71 -58 -117 -135 -135 -225 -7 -36 -21 -70 -38
-89 -14 -16 -32 -46 -39 -65 -7 -18 -18 -43 -24 -54 -48 -88 -52 -100 -51
-180 2 -121 57 -254 126 -309 l32 -25 -125 -128 c-69 -70 -144 -153 -166 -183
-53 -70 -110 -190 -122 -257 -23 -118 22 -231 113 -288 44 -27 58 -30 130 -30
64 0 90 5 122 22 143 76 183 221 119 428 -49 159 -55 188 -62 303 -7 120 -3
130 43 98 94 -66 318 -74 424 -15 15 8 72 16 140 19 136 7 174 21 340 129 91
60 113 70 165 75 36 4 84 18 120 36 78 38 220 145 268 201 21 24 41 47 45 52
4 4 48 33 97 65 188 122 265 198 285 283 22 89 -12 248 -81 379 -149 282 -494
491 -684 413z m207 -80 c-10 -4 -9 -10 5 -26 14 -17 15 -19 1 -9 -14 11 -16
11 -12 -6 7 -23 -2 -30 -105 -83 l-83 -42 -54 26 c-59 29 -61 41 -13 72 91 58
113 66 176 63 34 -1 65 1 69 5 4 4 12 7 18 6 6 0 5 -3 -2 -6z m-354 -215 c189
-77 361 -247 428 -423 32 -85 31 -110 -1 -63 -14 20 -25 44 -25 52 0 22 -3 21
-62 -21 -48 -35 -52 -36 -62 -19 -50 85 -110 169 -152 211 -108 111 -292 211
-407 222 -64 6 -78 16 -47 33 11 6 20 8 20 5 0 -4 7 1 16 10 11 11 26 14 43
10 21 -4 23 -3 11 5 -11 9 9 10 80 7 71 -3 111 -10 158 -29z m-275 -163 c193
-50 373 -224 441 -423 38 -111 52 -219 37 -286 -7 -30 -21 -66 -32 -80 -39
-50 -303 -226 -424 -282 -41 -20 -135 -34 -135 -20 0 2 11 24 25 48 35 63 41
119 20 203 -41 164 -163 328 -295 395 -53 27 -80 34 -146 38 -50 3 -96 0 -118
-8 -21 -7 -40 -10 -42 -7 -3 3 0 24 6 48 21 78 187 218 396 335 101 56 165 66
267 39z m776 -115 c-13 -9 -39 -2 -39 10 0 4 12 5 26 2 17 -3 22 -7 13 -12z
m-1276 -404 c54 -20 81 -46 65 -62 -15 -15 -68 -26 -68 -14 0 4 -36 11 -81 15
-67 6 -80 10 -77 24 4 20 64 51 98 51 14 -1 42 -7 63 -14z m167 -117 c0 -5 -4
-9 -10 -9 -5 0 -10 7 -10 16 0 8 5 12 10 9 6 -3 10 -10 10 -16z m-95 -59 c12
-19 -12 -10 -31 11 -19 22 -19 22 3 10 12 -6 25 -16 28 -21z m-290 -96 c0 -15
-6 -18 -30 -16 -39 4 -52 17 -36 36 17 20 66 6 66 -20z m-255 -723 c0 -5 -11
-39 -25 -75 -19 -50 -25 -86 -25 -146 0 -72 -2 -79 -22 -86 -16 -5 -27 0 -41
17 -32 40 -7 144 61 247 31 48 52 65 52 43z"/>
<path d="M7284 8055 c-7 -17 2 -45 14 -45 4 0 17 6 27 14 16 12 17 16 6 30
-17 20 -40 21 -47 1z"/>
<path d="M5591 8326 c-47 -17 -108 -71 -131 -116 -38 -74 -18 -176 47 -242
104 -107 287 -84 368 46 107 174 -83 385 -284 312z m109 -56 c38 -24 -35 -64
-95 -52 -37 7 -28 34 15 49 43 15 61 15 80 3z"/>
<path d="M3980 8137 c-14 -7 -33 -28 -43 -47 -24 -47 -16 -92 38 -210 24 -52
51 -121 60 -153 9 -32 19 -55 24 -53 4 3 11 27 14 53 3 26 18 84 33 128 44
131 33 238 -30 276 -36 22 -61 24 -96 6z"/>
<path d="M3345 8063 c-153 -55 -212 -190 -139 -322 48 -89 117 -139 306 -222
61 -27 136 -64 166 -82 55 -32 372 -309 327 -284 -6 3 -53 13 -105 22 -187 31
-330 90 -592 243 -219 129 -400 205 -550 232 -355 65 -660 -140 -659 -441 1
-105 28 -174 95 -243 60 -62 123 -96 221 -121 87 -22 169 -16 355 24 139 30
320 50 320 35 0 -5 -40 -24 -88 -43 -147 -57 -358 -157 -450 -212 -226 -135
-433 -312 -558 -479 -273 -363 -304 -841 -72 -1095 65 -72 163 -145 193 -145
20 0 23 -7 29 -55 14 -125 87 -245 175 -289 36 -19 177 -56 209 -56 3 0 -39
-28 -94 -63 -356 -227 -490 -372 -540 -583 -46 -196 45 -399 214 -480 83 -40
223 -46 323 -14 74 24 176 91 204 134 l16 24 53 -53 c37 -38 70 -59 113 -75
l60 -22 -28 -66 c-56 -134 -74 -224 -73 -372 1 -159 15 -228 74 -345 73 -145
184 -244 322 -286 94 -29 259 -23 363 12 79 27 213 111 300 191 179 163 363
292 570 399 217 113 444 180 615 181 163 1 270 -47 313 -140 19 -40 22 -71 27
-217 5 -156 7 -174 31 -225 72 -154 216 -221 375 -175 48 14 69 27 115 74 62
63 89 124 89 200 l0 45 -16 -24 c-32 -47 -89 -102 -129 -123 -81 -42 -201 -21
-264 46 l-23 25 31 46 c17 24 31 52 31 60 0 9 4 16 10 16 5 0 1 19 -9 43 -11
23 -32 73 -47 111 -38 96 -100 175 -186 238 -117 86 -141 98 -189 97 -24 -1
-57 4 -74 11 -57 22 -4 33 144 28 105 -4 149 -9 191 -25 30 -11 64 -24 75 -28
l20 -7 -20 17 c-11 9 -27 20 -35 25 -24 14 -6 21 77 32 142 18 345 -2 491 -48
170 -54 288 -157 453 -394 157 -225 243 -301 379 -336 126 -32 282 5 350 83
58 66 75 110 75 198 -1 68 -5 90 -31 145 l-30 64 -3 -84 c-3 -132 -38 -188
-132 -219 -42 -13 -132 -16 -180 -6 -93 20 -195 102 -278 223 -22 31 -62 84
-89 116 l-50 60 23 43 23 43 -41 29 c-41 27 -101 61 -111 61 -2 0 -2 -8 0 -17
3 -10 -1 -26 -8 -35 -12 -16 -22 -12 -118 45 -206 123 -265 138 -563 140 -108
0 -194 4 -190 8 5 4 68 19 141 33 73 14 150 35 170 45 137 68 482 120 682 101
227 -21 380 -76 540 -193 30 -23 132 -115 226 -206 231 -225 311 -270 496
-279 156 -7 283 41 377 143 149 162 142 419 -15 578 -240 243 -609 283 -1399
153 -82 -14 -151 -23 -154 -21 -5 5 -4 5 114 40 265 79 740 298 914 423 276
196 478 462 555 727 14 49 26 97 26 106 0 9 18 46 39 81 56 93 138 258 179
362 30 78 35 103 35 176 1 74 -3 92 -29 144 -36 73 -103 129 -182 152 -48 14
-66 15 -124 4 -45 -8 -79 -20 -97 -36 -16 -13 -31 -24 -33 -24 -3 0 4 33 14
73 33 125 2 239 -90 338 -137 149 -355 188 -533 98 -69 -34 -165 -128 -216
-211 l-35 -57 -32 42 c-42 56 -103 101 -173 128 -85 33 -244 33 -327 0 -57
-23 -141 -93 -178 -148 -11 -18 -31 -25 -91 -34 l-76 -11 -43 35 c-94 76 -248
137 -345 137 -29 0 -33 3 -28 19 4 14 0 21 -16 26 -43 14 -101 79 -141 159
-22 45 -52 94 -67 110 l-26 28 25 17 c161 108 233 181 288 294 37 77 47 141
32 214 -16 75 -72 137 -143 158 -72 21 -106 19 -199 -15 -104 -38 -213 -67
-309 -80 -91 -13 -427 -40 -489 -39 l-45 0 65 23 c36 13 85 32 110 43 51 23
153 48 255 63 87 14 141 37 194 85 102 93 56 236 -85 265 -118 25 -240 -21
-389 -146 -81 -68 -178 -134 -197 -134 -5 0 12 27 36 60 150 204 147 383 -8
468 -23 13 -55 17 -126 17 -84 0 -101 -3 -146 -27 -65 -34 -146 -125 -183
-203 -53 -113 -66 -184 -64 -352 l2 -152 -22 19 c-12 10 -46 37 -75 60 -88 69
-144 156 -203 315 -123 332 -259 484 -449 500 -48 4 -78 1 -115 -12z m-608
-497 c99 -21 151 -42 212 -84 48 -32 52 -37 32 -40 -13 -2 -65 3 -116 12 -114
20 -231 20 -310 1 -83 -20 -128 -19 -156 4 l-24 20 31 32 c63 63 191 84 331
55z m2983 -440 c0 -2 -7 -23 -15 -47 -38 -106 -149 -207 -320 -289 -184 -89
-341 -131 -751 -200 -328 -56 -505 -89 -530 -99 -14 -6 -48 -72 -116 -227
-139 -315 -271 -635 -265 -641 3 -2 47 2 98 11 161 28 237 19 280 -30 30 -35
59 -132 59 -199 l0 -64 -32 -5 c-18 -3 -76 -10 -128 -16 -100 -12 -202 -34
-337 -75 l-81 -25 -61 -184 c-67 -207 -139 -474 -172 -646 -18 -91 -23 -151
-23 -290 -1 -169 6 -217 40 -296 6 -14 -50 -39 -121 -54 -156 -32 -310 46
-374 191 -77 173 -40 497 111 982 17 54 29 100 26 102 -8 8 -144 -52 -220 -97
-64 -36 -70 -38 -108 -28 -46 12 -104 59 -126 103 -9 16 -16 49 -17 74 -2 42
1 48 47 90 90 81 323 206 501 268 l81 29 28 70 c102 249 203 476 317 711 32
65 56 121 54 123 -8 8 -289 -89 -380 -131 -270 -124 -461 -289 -560 -486 -36
-72 -56 -172 -49 -243 6 -51 4 -57 -16 -68 -27 -14 -113 -9 -179 11 -55 17
-142 95 -169 153 -105 223 13 519 297 745 300 238 677 392 1221 495 246 47
427 68 970 111 429 34 509 42 641 65 110 20 318 79 349 100 15 10 30 13 30 6z
m-450 -527 c160 -72 190 -240 89 -497 -55 -140 -164 -325 -287 -487 -65 -86
-342 -359 -437 -430 -79 -60 -79 -61 -93 -125 -8 -36 -15 -123 -16 -193 l-1
-129 28 -24 c36 -30 51 -30 115 2 72 36 150 109 230 218 95 127 129 184 136
231 20 119 97 317 168 435 93 153 296 355 424 422 167 88 316 67 447 -64 91
-91 125 -214 108 -386 -6 -53 -9 -97 -7 -99 1 -1 43 20 92 48 98 57 173 113
181 138 20 61 89 224 134 318 61 127 79 143 167 143 66 0 129 -28 174 -77 71
-80 66 -119 -53 -420 -111 -283 -142 -391 -143 -499 -1 -55 3 -86 13 -97 17
-21 63 -22 99 -3 37 19 119 107 168 181 90 133 116 191 198 439 114 346 204
531 279 577 71 42 198 11 266 -66 32 -37 33 -41 28 -104 -4 -48 -21 -106 -62
-211 -129 -326 -175 -481 -175 -587 0 -80 11 -103 50 -103 113 0 309 206 486
510 51 86 62 99 83 97 13 -1 33 -14 44 -29 54 -72 -11 -259 -171 -499 -174
-259 -332 -390 -522 -433 -169 -39 -293 30 -360 199 l-26 66 -39 -62 c-60 -97
-206 -239 -287 -279 -215 -105 -420 -3 -483 240 -19 73 -15 204 10 320 7 36
12 66 10 68 -1 2 -20 -9 -41 -23 -22 -15 -73 -44 -115 -65 -68 -34 -77 -43
-83 -72 -10 -54 -101 -232 -168 -330 -247 -361 -557 -458 -773 -242 -32 31
-66 80 -85 118 l-31 66 -51 -77 c-63 -95 -204 -238 -289 -293 -77 -50 -150
-72 -238 -72 -170 -1 -288 100 -347 297 -24 78 -23 272 1 410 53 309 176 654
325 914 181 315 438 579 611 625 79 21 165 20 219 -5z m2341 -2037 c-80 -156
-397 -331 -861 -475 -168 -52 -505 -142 -700 -187 -771 -178 -1135 -275 -1425
-377 -298 -105 -574 -237 -748 -355 -107 -74 -265 -222 -322 -302 l-40 -57
-51 6 c-71 7 -118 29 -173 80 -81 76 -129 207 -117 319 43 398 518 708 1356
885 321 68 649 114 1305 181 427 44 822 92 1021 125 287 47 570 119 704 178
30 14 58 23 62 20 5 -2 -1 -21 -11 -41z m-5062 -209 c-12 -21 -37 -56 -54 -78
-17 -22 -44 -62 -60 -90 -46 -80 -110 -150 -183 -199 -106 -70 -162 -74 -162
-12 0 79 96 203 225 288 83 55 245 141 252 134 3 -3 -5 -22 -18 -43z m5210
-643 c148 -30 258 -96 301 -179 25 -49 14 -64 -46 -63 -36 1 -61 10 -98 34
-109 68 -197 108 -358 159 -93 29 -168 56 -168 61 0 17 272 8 369 -12z m-2408
-617 c13 -16 12 -17 -3 -4 -10 7 -18 15 -18 17 0 8 8 3 21 -13z"/>
<path d="M5111 6313 c-104 -105 -242 -338 -360 -607 -48 -109 -102 -256 -95
-256 23 0 233 239 331 375 116 162 218 354 237 449 16 79 12 96 -26 96 -23 0
-43 -13 -87 -57z"/>
<path d="M5839 5805 c-73 -54 -120 -142 -126 -235 -7 -110 39 -159 156 -168
l69 -5 11 39 c35 123 39 320 7 368 -22 35 -70 35 -117 1z"/>
<path d="M5480 5243 c-52 -144 -73 -247 -68 -335 6 -96 24 -128 74 -128 75 0
176 78 262 203 40 59 102 167 102 179 0 2 -29 4 -63 4 -85 3 -154 33 -212 95
-25 26 -45 53 -45 59 0 5 -4 10 -9 10 -5 0 -23 -39 -41 -87z"/>
<path d="M2539 7991 c-21 -21 -29 -39 -29 -64 0 -68 58 -107 161 -107 47 0
161 -30 212 -56 36 -19 34 -12 -10 50 -112 154 -176 206 -255 206 -41 0 -54
-5 -79 -29z"/>
<path d="M5115 7977 c-51 -43 -28 -137 32 -137 87 0 128 97 61 144 -31 22 -62
20 -93 -7z"/>
<path d="M7999 7037 l-12 -34 -109 -2 c-114 -2 -148 -11 -238 -56 -105 -53
-209 -145 -210 -186 -1 -8 -22 -31 -48 -53 -27 -21 -58 -56 -70 -78 l-23 -39
79 40 c116 58 238 91 339 91 89 0 220 23 264 45 65 34 118 131 103 192 -8 35
-41 100 -53 107 -5 4 -15 -9 -22 -27z"/>
<path d="M7165 6960 c-25 -27 -32 -102 -11 -119 12 -10 13 -18 5 -33 -6 -11
-8 -22 -6 -25 3 -2 8 5 12 16 3 11 22 30 41 41 29 18 34 27 34 59 0 61 -43 96
-75 61z"/>
<path d="M2014 6726 c-29 -29 -34 -41 -34 -79 0 -38 5 -49 31 -71 55 -47 144
-26 185 43 13 22 32 35 69 47 74 24 74 30 -1 38 -50 5 -75 13 -96 31 -22 19
-41 25 -75 25 -38 0 -50 -5 -79 -34z"/>
<path d="M5830 6610 c-30 -30 -27 -85 6 -106 24 -16 27 -16 52 3 34 25 43 90
16 110 -25 19 -51 16 -74 -7z"/>
<path d="M8030 6560 c-11 -7 52 -71 87 -89 56 -29 143 4 143 54 0 22 -2 23
-30 12 -25 -9 -45 -8 -110 9 -44 11 -84 18 -90 14z"/>
<path d="M7063 6500 c-5 -22 -7 -40 -3 -40 9 0 30 46 30 65 0 30 -16 14 -27
-25z"/>
<path d="M8244 4571 c-31 -14 -64 -60 -64 -90 0 -56 66 -100 130 -86 38 8 80
58 80 95 0 62 -83 108 -146 81z"/>
<path d="M1959 4560 c-26 -15 -41 -62 -30 -93 13 -34 45 -50 86 -43 37 7 61
30 70 68 14 54 -71 100 -126 68z"/>
<path d="M8040 4226 c-50 -13 -75 -27 -260 -140 -179 -109 -179 -109 -45 -101
80 5 143 2 232 -10 112 -15 127 -15 177 -1 71 21 116 70 116 127 0 58 -24 97
-73 120 -48 21 -83 23 -147 5z"/>
<path d="M2541 3260 c-30 -16 -99 -42 -153 -60 -150 -49 -210 -101 -212 -184
-1 -56 24 -92 74 -107 91 -28 172 32 253 187 25 49 60 113 77 142 17 28 27 51
23 51 -5 -1 -32 -14 -62 -29z"/>
<path d="M5930 3111 c-14 -4 -26 -15 -28 -24 -4 -18 39 -75 67 -91 9 -5 13 -5
9 -1 -4 4 0 24 8 43 14 34 13 37 -8 58 -17 15 -30 19 -48 15z"/>
<path d="M2578 2865 c-64 -112 -73 -140 -64 -190 18 -94 130 -101 155 -9 7 26
6 50 -6 92 -8 31 -18 91 -22 132 l-6 75 -57 -100z"/>
<path d="M4815 2861 c-58 -26 -102 -81 -110 -135 -9 -60 24 -131 75 -158 46
-25 116 -20 160 12 66 47 89 158 49 230 -38 68 -98 86 -174 51z"/>
<path d="M4535 2829 c-22 -17 -107 -79 -189 -137 -203 -146 -256 -217 -256
-344 0 -115 63 -179 175 -179 72 0 125 29 170 95 54 79 74 152 85 310 11 143
21 200 47 249 8 16 13 30 11 32 -2 2 -21 -10 -43 -26z"/>
<path d="M6242 2459 c-7 -28 -12 -75 -12 -106 0 -50 3 -58 35 -90 33 -33 39
-35 82 -30 50 5 93 41 93 76 0 16 -7 17 -49 13 -43 -4 -51 -1 -74 24 -18 19
-29 48 -38 96 -7 37 -15 68 -19 68 -4 0 -12 -23 -18 -51z"/>
</g>
</svg>
